:SAMPLES-PER-SECOND 30
:FULLY-SPECIFIED
:DEGREES
648
root  9.20797 34.8494 51.8834 8.14394 14.8054 -0.0389401
LeftUpLeg  -12.198 12.0833 -0.022549
LeftLeg  11.4053 6.7095 0.906503
LeftFoot  0.114281 -1.18904e-005 0.0119141
LeftToes  -17.4673 6.91067e-007 1.07128e-007
Spine  4.84468 0.117379 -0.749134
Spine1  9.5784 0.101587 -1.13127
RightShoulder  -6.95619e-005 6.65751 3.07099
RightArm  -27.6777 -15.8758 79.3161
RightForeArm  25.1838 34.8546 7.05406
RightHand  0.878851 -9.5207 -10.1471
LeftShoulder1  0.0370859 -1.51436 -4.57357
LeftArm  -15.7891 1.12265 -65.5283
LeftForeArm  21.1724 -31.1875 -6.12175
LeftHand  0.42135 6.02498 7.61479
HEad  4.62497 2.1963 -1.91535
RightUpLeg  -31.8429 -19.2974 -0.466418
RightLeg  37.7011 5.45562 3.65403
RightFoot  3.38935 0.00670677 0.368349
RightToes  -35.0368 -0.180098 -0.285405
649
root  9.26777 34.7915 52.5992 8.78011 15.3518 0.546166
LeftUpLeg  -11.3002 11.7619 -0.190431
LeftLeg  11.0629 6.54264 0.844378
LeftFoot  -0.720059 -0.000546848 -0.0870338
LeftToes  -18.333 6.91067e-007 1.07128e-007
Spine  4.71304 -0.0240868 -0.691533
Spine1  9.31246 -0.198569 -1.03545
RightShoulder  0.00197645 6.5519 2.8658
RightArm  -27.6741 -14.7834 79.9208
RightForeArm  26.9746 34.568 6.97797
RightHand  0.891229 -8.76503 -11.2112
LeftShoulder1  0.0380531 -1.64842 -4.22771
LeftArm  -14.8919 0.454468 -66.7539
LeftForeArm  21.4287 -31.3738 -6.16708
LeftHand  0.412013 5.95891 7.52478
HEad  4.39572 2.51461 -1.96665
RightUpLeg  -31.8278 -20.2777 -0.468693
RightLeg  26.1597 4.98937 2.05596
RightFoot  6.46653 -0.00850518 0.581921
RightToes  -35.8624 -0.186302 -0.294255
650
root  9.30468 34.6887 53.3935 9.68168 15.8297 1.75618
LeftUpLeg  -10.3971 11.668 -0.855679
LeftLeg  10.769 6.12388 0.75865
LeftFoot  -1.59653 -0.00246749 -0.177103
LeftToes  -19.2082 6.91067e-007 1.07128e-007
Spine  4.49589 -0.194717 -0.838278
Spine1  8.88989 -0.533377 -1.35522
RightShoulder  0.00307158 6.45733 2.73088
RightArm  -27.4671 -14.1669 80.4621
RightForeArm  27.121 34.2779 6.90193
RightHand  0.841676 -8.33096 -11.1393
LeftShoulder1  0.0383664 -1.84094 -3.95006
LeftArm  -13.7079 0.841972 -67.5997
LeftForeArm  21.436 -32.1194 -6.35036
LeftHand  0.407808 6.0501 7.32695
HEad  4.11208 3.19659 -2.13254
RightUpLeg  -31.2768 -20.6509 -1.31442
RightLeg  14.5768 4.29969 0.827558
RightFoot  8.28407 -0.0117102 0.608268
RightToes  -37.1447 -0.196085 -0.298431
651
root  9.32321 34.5452 54.266 10.3672 16.3305 3.08312
LeftUpLeg  -9.33477 11.4239 -1.43767
LeftLeg  10.9798 5.78119 0.737823
LeftFoot  -2.62467 -0.006245 -0.272614
LeftToes  -20.9279 6.91067e-007 1.07128e-007
Spine  4.31925 -0.3575 -1.03043
Spine1  8.5505 -0.84283 -1.77086
RightShoulder  0.00391098 6.28304 2.80959
RightArm  -26.7514 -13.9295 80.6831
RightForeArm  26.4785 34.0462 6.84182
RightHand  0.777937 -8.39303 -10.1945
LeftShoulder1  0.0379125 -2.11871 -3.82581
LeftArm  -12.406 2.09725 -68.0496
LeftForeArm  21.622 -33.4002 -6.67257
LeftHand  0.360662 5.9648 6.53661
HEad  3.78025 4.37543 -2.42958
RightUpLeg  -30.5588 -21.4767 -2.16298
RightLeg  5.17383 4.18182 0.11014
RightFoot  8.58457 -0.0130683 0.609726
RightToes  -34.5446 -0.176435 -0.282278
652
root  9.31186 34.3874 55.2401 10.6929 16.9582 4.0729
LeftUpLeg  -8.12891 11.0141 -1.47863
LeftLeg  11.8068 5.54249 0.788634
LeftFoot  -3.97576 -0.0136859 -0.394311
LeftToes  -21.9512 6.91067e-007 1.07128e-007
Spine  4.15471 -0.509742 -1.09437
Spine1  8.23141 -1.12953 -1.9428
RightShoulder  0.00508711 6.10579 3.05586
RightArm  -26.1348 -13.9117 80.5674
RightForeArm  26.3874 33.1897 6.62181
RightHand  0.68637 -8.38274 -8.96826
LeftShoulder1  0.0365785 -2.27325 -3.89858
LeftArm  -11.1354 4.00633 -68.4118
LeftForeArm  22.1929 -34.6975 -7.00914
LeftHand  0.294083 5.63916 5.58895
HEad  3.6616 5.87575 -2.99529
RightUpLeg  -31.0704 -23.9478 -1.59323
RightLeg  1.46478 5.55495 -0.213966
RightFoot  6.90039 -0.0170727 0.660657
RightToes  -35.1689 -0.181086 -0.286238
653
root  9.28925 34.2257 56.3115 10.1878 17.4985 4.42654
LeftUpLeg  -6.41783 10.3901 -0.729355
LeftLeg  13.2977 5.75574 0.971887
LeftFoot  -5.5754 -0.0279439 -0.573885
LeftToes  -22.9476 6.91067e-007 1.07128e-007
Spine  4.11395 -0.580853 -0.892923
Spine1  8.15045 -1.26588 -1.59406
RightShoulder  0.00719488 5.9383 3.28912
RightArm  -26.0349 -13.982 80.0878
RightForeArm  26.4658 31.7194 6.25425
RightHand  0.619248 -8.07897 -8.37509
LeftShoulder1  0.0342512 -2.25761 -4.23674
LeftArm  -10.6244 6.4656 -69.0885
LeftForeArm  23.0759 -35.651 -7.26353
LeftHand  0.226421 5.2073 4.59997
HEad  3.62541 8.70287 -4.2219
RightUpLeg  -29.3899 -21.7007 -3.31122
RightLeg  1.47809 5.43687 -0.208168
RightFoot  7.14929 -0.0182635 0.669835
RightToes  -38.9492 -0.210144 -0.30911
